# xmcd
#
# Track frame offsets:
#	151
#	15127
#	32678
#
# Disc length: 713 seconds
#
# Revision: 5
# Processed by: cddbd v1.5.2PL0 Copyright (c) Steve Scherf et al.
# Submitted via: EasyCDDAExtractor 10.0.3.1
#
DISCID=1102c703
DTITLE=RICHARD TAHA - SINGLE
DYEAR=1900
DGENRE=
TTITLE0=Rock The Casbah - SHORT SINGLE MIX
TTITLE1=Rock The Casbah - LONG SINGLE MIX
TTITLE2=Rock The Casbah - ALBUM MIX
EXTD=
EXTT0=
EXTT1=
EXTT2=
PLAYORDER=
